<?xml version="1.0" encoding="UTF-8"?>
<svg id="Capa_1" data-name="Capa 1" xmlns="http://www.w3.org/2000/svg" viewBox="0 0 50 50">
  <defs>
    <style>
      .cls-1 {
        fill: #554dde;
      }

      .cls-1, .cls-2, .cls-3, .cls-4, .cls-5 {
        stroke-width: 0px;
      }

      .cls-3 {
        fill: none;
        opacity: 0;
      }

      .cls-4 {
        fill: #f1f1f1;
      }

      .cls-5 {
        fill: #1e1e1f;
      }
    </style>
  </defs>
  <rect class="cls-3" width="50" height="50"/>
  <path class="cls-4" d="m30.42,44.27h-5.94v-5.94c0-.86-.7-1.56-1.56-1.56s-1.56.7-1.56,1.56v5.94h-5.94c-.86,0-1.56.7-1.56,1.56s.7,1.56,1.56,1.56h15c.86,0,1.56-.7,1.56-1.56s-.7-1.56-1.56-1.56Z"/>
  <path class="cls-2" d="m41.67,25.42v3.54c0,6.56-3.75,9.38-9.37,9.38H13.54c-5.63,0-9.37-2.81-9.37-9.38v-11.25c0-6.56,3.75-9.37,9.37-9.37h5.63c-.27.79-.42,1.67-.42,2.6v8.12c0,2.02.67,3.73,1.85,4.92,1.19,1.19,2.9,1.85,4.92,1.85v2.9c0,1.06,1.21,1.71,2.1,1.12l6.02-4.02h5.42c.94,0,1.81-.15,2.6-.42Z"/>
  <path class="cls-1" d="m45.83,10.94v8.12c0,3.1-1.58,5.44-4.17,6.35-.79.27-1.67.42-2.6.42h-5.42l-6.02,4.02c-.9.58-2.1-.06-2.1-1.12v-2.9c-2.02,0-3.73-.67-4.92-1.85-1.19-1.19-1.85-2.9-1.85-4.92v-8.12c0-.94.15-1.81.42-2.6.92-2.58,3.25-4.17,6.35-4.17h13.54c4.06,0,6.77,2.71,6.77,6.77Z"/>
  <g>
    <rect class="cls-3" x="23.51" y="5.77" width="17.57" height="17.57"/>
    <path class="cls-4" d="m26.25,14.5c-.3,0-.55-.25-.55-.55,0-3.13,2.34-5.76,5.44-6.12.3-.03.57.18.61.48.04.3-.18.57-.48.61-2.55.3-4.47,2.46-4.47,5.03,0,.3-.25.55-.55.55Z"/>
    <path class="cls-4" d="m38.33,14.5c-.3,0-.55-.25-.55-.55,0-2.55-1.91-4.72-4.45-5.02-.3-.04-.52-.31-.48-.61.04-.3.31-.51.61-.48,3.09.38,5.41,3.01,5.41,6.11,0,.3-.25.55-.55.55Z"/>
    <g>
      <path class="cls-2" d="m33.24,21.89h-1.88c-.67,0-1.17-.55-1.05-1.13l.31-1.35h3.36l.31,1.35c.14.62-.33,1.13-1.05,1.13Z"/>
      <path class="cls-5" d="m35.27,18.26l-1.29,1.15h-3.36l-1.29-1.15c-.75-.62-.75-1.09-.18-1.82l2.28-2.89c.16-.2.34-.33.54-.4.22-.07.44-.07.66,0,.2.07.38.21.54.4l2.28,2.89c.57.73.55,1.17-.18,1.82Z"/>
    </g>
    <g>
      <rect class="cls-5" x="30.84" y="6.87" width="2.93" height="2.93" rx="1.1" ry="1.1"/>
      <rect class="cls-5" x="24.8" y="13.58" width="2.93" height="2.93" rx="1.1" ry="1.1"/>
      <rect class="cls-5" x="36.86" y="13.58" width="2.93" height="2.93" rx="1.1" ry="1.1"/>
    </g>
  </g>
</svg>