<?xml version="1.0" encoding="UTF-8"?>
<svg id="Capa_1" data-name="Capa 1" xmlns="http://www.w3.org/2000/svg" viewBox="0 0 50 50">
  <defs>
    <style>
      .cls-1 {
        fill: #554dde;
      }

      .cls-1, .cls-2, .cls-3, .cls-4 {
        stroke-width: 0px;
      }

      .cls-3 {
        fill: none;
        opacity: 0;
      }

      .cls-4 {
        fill: #f1f1f1;
      }
    </style>
  </defs>
  <g>
    <rect class="cls-3" width="50" height="50"/>
    <path class="cls-4" d="m30.42,44.27h-5.94v-5.94c0-.86-.7-1.56-1.56-1.56s-1.56.7-1.56,1.56v5.94h-5.94c-.86,0-1.56.7-1.56,1.56s.7,1.56,1.56,1.56h15c.86,0,1.56-.7,1.56-1.56s-.7-1.56-1.56-1.56Z"/>
    <path class="cls-2" d="m41.67,25.42v3.54c0,6.56-3.75,9.38-9.37,9.38H13.54c-5.63,0-9.37-2.81-9.37-9.38v-11.25c0-6.56,3.75-9.37,9.37-9.37h5.63c-.27.79-.42,1.67-.42,2.6v8.12c0,2.02.67,3.73,1.85,4.92,1.19,1.19,2.9,1.85,4.92,1.85v2.9c0,1.06,1.21,1.71,2.1,1.12l6.02-4.02h5.42c.94,0,1.81-.15,2.6-.42Z"/>
    <path class="cls-1" d="m45.83,10.94v8.12c0,3.1-1.58,5.44-4.17,6.35-.79.27-1.67.42-2.6.42h-5.42l-6.02,4.02c-.9.58-2.1-.06-2.1-1.12v-2.9c-2.02,0-3.73-.67-4.92-1.85-1.19-1.19-1.85-2.9-1.85-4.92v-8.12c0-.94.15-1.81.42-2.6.92-2.58,3.25-4.17,6.35-4.17h13.54c4.06,0,6.77,2.71,6.77,6.77Z"/>
    <rect class="cls-3" x="23.51" y="5.77" width="17.57" height="17.57"/>
  </g>
  <g>
    <rect class="cls-3" x="24.41" y="6.98" width="16.59" height="16.59"/>
    <path class="cls-2" d="m33.61,12.58l.91,1.83c.13.25.46.5.73.54l1.65.28c1.06.18,1.3.94.55,1.7l-1.29,1.29c-.22.22-.34.64-.27.94l.37,1.59c.29,1.26-.38,1.75-1.49,1.09l-1.55-.92c-.28-.17-.74-.17-1.02,0l-1.55.92c-1.11.66-1.78.17-1.49-1.09l.37-1.59c.07-.3-.05-.72-.27-.94l-1.29-1.29c-.76-.76-.51-1.53.55-1.7l1.65-.28c.28-.05.61-.29.73-.54l.91-1.83c.49-.99,1.3-.99,1.8,0Z"/>
    <path class="cls-4" d="m28.56,13.72c-.29,0-.52-.23-.52-.52v-4.84c0-.29.23-.52.52-.52s.52.23.52.52v4.84c0,.29-.23.52-.52.52Z"/>
    <path class="cls-4" d="m36.85,13.72c-.29,0-.52-.23-.52-.52v-4.84c0-.29.23-.52.52-.52s.52.23.52.52v4.84c0,.29-.23.52-.52.52Z"/>
    <path class="cls-4" d="m32.71,10.26c-.29,0-.52-.23-.52-.52v-1.38c0-.29.23-.52.52-.52s.52.23.52.52v1.38c0,.29-.23.52-.52.52Z"/>
  </g>
</svg>