<?xml version="1.0" encoding="UTF-8"?>
<svg id="Capa_1" data-name="Capa 1" xmlns="http://www.w3.org/2000/svg" viewBox="0 0 50 50">
  <defs>
    <style>
      .cls-1 {
        fill: #554dde;
      }

      .cls-1, .cls-2, .cls-3, .cls-4, .cls-5 {
        stroke-width: 0px;
      }

      .cls-3 {
        fill: none;
        opacity: 0;
      }

      .cls-4 {
        fill: #f1f1f1;
      }

      .cls-5 {
        fill: #1e1e1f;
      }
    </style>
  </defs>
  <g>
    <rect class="cls-3" width="50" height="50"/>
    <path class="cls-4" d="m30.42,44.27h-5.94v-5.94c0-.86-.7-1.56-1.56-1.56s-1.56.7-1.56,1.56v5.94h-5.94c-.86,0-1.56.7-1.56,1.56s.7,1.56,1.56,1.56h15c.86,0,1.56-.7,1.56-1.56s-.7-1.56-1.56-1.56Z"/>
    <path class="cls-2" d="m41.67,25.42v3.54c0,6.56-3.75,9.38-9.37,9.38H13.54c-5.63,0-9.37-2.81-9.37-9.38v-11.25c0-6.56,3.75-9.37,9.37-9.37h5.63c-.27.79-.42,1.67-.42,2.6v8.12c0,2.02.67,3.73,1.85,4.92,1.19,1.19,2.9,1.85,4.92,1.85v2.9c0,1.06,1.21,1.71,2.1,1.12l6.02-4.02h5.42c.94,0,1.81-.15,2.6-.42Z"/>
    <path class="cls-1" d="m45.83,10.94v8.12c0,3.1-1.58,5.44-4.17,6.35-.79.27-1.67.42-2.6.42h-5.42l-6.02,4.02c-.9.58-2.1-.06-2.1-1.12v-2.9c-2.02,0-3.73-.67-4.92-1.85-1.19-1.19-1.85-2.9-1.85-4.92v-8.12c0-.94.15-1.81.42-2.6.92-2.58,3.25-4.17,6.35-4.17h13.54c4.06,0,6.77,2.71,6.77,6.77Z"/>
    <rect class="cls-3" x="23.51" y="5.77" width="17.57" height="17.57"/>
  </g>
  <g>
    <path class="cls-5" d="m40,11.87v5.75c0,2.56-1.52,4.08-4.08,4.08h-5.88c-2.56,0-4.08-1.52-4.08-4.08v-5.74h14.04Z"/>
    <path class="cls-4" d="m30.87,18.71c-.08,0-.16-.02-.23-.06-.54-.27-1.01-.68-1.34-1.18-.28-.42-.28-.96,0-1.38.34-.5.8-.91,1.34-1.18.26-.13.58-.02.71.24.13.26.02.58-.24.71-.38.19-.7.47-.93.83-.04.07-.04.15,0,.22.23.35.56.64.93.83.26.13.37.45.24.71-.09.18-.28.29-.47.29Z"/>
    <path class="cls-4" d="m35.23,18.71c-.19,0-.38-.11-.47-.29-.13-.26-.02-.58.24-.71.38-.19.7-.47.93-.83.04-.07.04-.15,0-.22-.23-.35-.56-.64-.93-.83-.26-.13-.37-.45-.24-.71.13-.26.45-.37.71-.24.54.27,1.01.68,1.34,1.18.28.42.28.96,0,1.38-.34.5-.8.91-1.34,1.18-.08.04-.16.06-.23.06Z"/>
    <path class="cls-2" d="m40,11.73v.13h-14.04s0-.13,0-.13c0-2.56,1.52-4.08,4.08-4.08h5.88c2.56,0,4.08,1.52,4.08,4.08Z"/>
  </g>
</svg>