<?xml version="1.0" encoding="UTF-8"?>
<svg id="Capa_1" data-name="Capa 1" xmlns="http://www.w3.org/2000/svg" viewBox="0 0 50 50">
  <defs>
    <style>
      .cls-1 {
        fill: #554dde;
      }

      .cls-1, .cls-2, .cls-3, .cls-4, .cls-5 {
        stroke-width: 0px;
      }

      .cls-3 {
        fill: none;
        opacity: 0;
      }

      .cls-4 {
        fill: #f1f1f1;
      }

      .cls-5 {
        fill: #1e1e1f;
      }
    </style>
  </defs>
  <g>
    <rect class="cls-3" width="50" height="50"/>
    <path class="cls-4" d="m30.42,44.27h-5.94v-5.94c0-.86-.7-1.56-1.56-1.56s-1.56.7-1.56,1.56v5.94h-5.94c-.86,0-1.56.7-1.56,1.56s.7,1.56,1.56,1.56h15c.86,0,1.56-.7,1.56-1.56s-.7-1.56-1.56-1.56Z"/>
    <path class="cls-2" d="m41.67,25.42v3.54c0,6.56-3.75,9.38-9.37,9.38H13.54c-5.63,0-9.37-2.81-9.37-9.38v-11.25c0-6.56,3.75-9.37,9.37-9.37h5.63c-.27.79-.42,1.67-.42,2.6v8.12c0,2.02.67,3.73,1.85,4.92,1.19,1.19,2.9,1.85,4.92,1.85v2.9c0,1.06,1.21,1.71,2.1,1.12l6.02-4.02h5.42c.94,0,1.81-.15,2.6-.42Z"/>
    <path class="cls-1" d="m45.83,10.94v8.12c0,3.1-1.58,5.44-4.17,6.35-.79.27-1.67.42-2.6.42h-5.42l-6.02,4.02c-.9.58-2.1-.06-2.1-1.12v-2.9c-2.02,0-3.73-.67-4.92-1.85-1.19-1.19-1.85-2.9-1.85-4.92v-8.12c0-.94.15-1.81.42-2.6.92-2.58,3.25-4.17,6.35-4.17h13.54c4.06,0,6.77,2.71,6.77,6.77Z"/>
    <rect class="cls-3" x="23.51" y="5.77" width="17.57" height="17.57"/>
  </g>
  <g>
    <path class="cls-5" d="m34.7,11.24v7.25c0,1.36-.49,2.38-1.37,2.87-.36.2-.75.29-1.16.29-.63,0-1.31-.21-2.01-.65l-2.31-1.44c-.16-.09-.34-.15-.52-.15h-.73v-9.08h.73c.18,0,.36-.06.52-.15l2.31-1.44c1.15-.72,2.28-.84,3.17-.36.88.49,1.37,1.51,1.37,2.87Z"/>
    <path class="cls-2" d="m26.61,10.32v9.08h-.39c-1.91,0-2.96-1.05-2.96-2.96v-3.16c0-1.91,1.05-2.96,2.96-2.96h.39Z"/>
  </g>
  <path class="cls-4" d="m36.64,11.15c-.14-.25-.04-.57.21-.7l1.22-.66c.25-.14.57-.04.7.21s.04.57-.21.7l-1.22.66c-.25.14-.57.04-.7-.21Z"/>
  <path class="cls-4" d="m36.55,17.93c.09-.27.38-.43.65-.34l1.32.41c.27.09.43.38.34.65s-.38.43-.65.34l-1.32-.41c-.27-.09-.43-.38-.34-.65Z"/>
  <path class="cls-4" d="m38.99,14.49c0,.29-.23.52-.52.52h-1.38c-.29,0-.52-.23-.52-.52s.23-.52.52-.52h1.38c.29,0,.52.23.52.52Z"/>
</svg>