<?xml version="1.0" encoding="UTF-8"?>
<svg id="Capa_1" data-name="Capa 1" xmlns="http://www.w3.org/2000/svg" viewBox="0 0 34 34">
  <defs>
    <style>
      .cls-1 {
        fill: #554dde;
      }

      .cls-1, .cls-2 {
        stroke-width: 0px;
      }

      .cls-2 {
        fill: #f1f1f1;
      }
    </style>
  </defs>
  <path class="cls-2" d="m16.73,27.36c0,1.52,0,3.04,0,4.56,0,.23-.12.55.16.64.14.05.39-.12.55-.24,2.8-2.04,5.64-4.02,8.38-6.13,2.79-2.16,4.15-5.07,4.14-8.62,0-2.55,0-5.11,0-7.66,0-.25.16-.6-.14-.75-.24-.12-.43.17-.61.31-2.56,1.85-5.11,3.71-7.66,5.57-3.25,2.37-4.94,5.51-4.82,9.58.03.91,0,1.82,0,2.74Z"/>
  <path class="cls-2" d="m4.01,10.08c.01,2.21-.23,4.46.95,6.51.6,1.03,1.3,1.96,2.26,2.67,2.15,1.59,4.31,3.15,6.47,4.71.23.16.68.66.66-.1-.08-2.79.35-5.59-.3-8.36-.4-1.7-1.24-3.17-2.59-4.23-2.22-1.75-4.54-3.37-6.81-5.06-.46-.34-.66-.3-.65.32.02,1.18,0,2.35,0,3.53Z"/>
  <path class="cls-1" d="m16.73,11.36c0,.82,0,1.64,0,2.46,0,.51.15.61.57.29,1.61-1.2,3.26-2.33,4.82-3.59,1.29-1.04,1.89-2.52,1.98-4.15.08-1.45.02-2.91.02-4.37,0-.17,0-.42-.11-.5-.21-.17-.38.07-.54.18-1.4,1.01-2.81,2.02-4.19,3.06-1.65,1.24-2.57,2.87-2.53,4.98.01.55,0,1.09,0,1.64,0,0,0,0,0,0Z"/>
</svg>