<?xml version="1.0" encoding="UTF-8"?>
<svg id="Capa_1" data-name="Capa 1" xmlns="http://www.w3.org/2000/svg" viewBox="0 0 84.96 79.49">
  <defs>
    <style>
      .cls-1 {
        fill: #554dde;
      }

      .cls-1, .cls-2, .cls-3 {
        stroke-width: 0px;
      }

      .cls-4 {
        isolation: isolate;
      }

      .cls-5 {
        fill: #e5effa;
      }

      .cls-5, .cls-6 {
        stroke: #131936;
        stroke-linejoin: round;
        stroke-width: .96px;
      }

      .cls-2 {
        fill: #7a6aff;
      }

      .cls-6 {
        fill: none;
        stroke-linecap: round;
      }

      .cls-3 {
        fill: #c0a6ff;
      }
    </style>
  </defs>
  <g class="cls-4">
    <g>
      <g>
        <path class="cls-6" d="m37.77,15.02c-.27,0-.95.03-1.17.04-.15,0-.29.01-.44.02-12.92.54-22.11,7.25-24.63,18.14-.18.8-.33,1.58-.42,2.35-.57-.89-1.02-1.87-1.34-2.92-.15-.49-.27-.99-.36-1.52-.03-.17-.06-.35-.08-.53-.03-.18-.05-.36-.07-.54-.03-.26-.05-.52-.06-.78,0-.03,0-.06,0-.09-.04-.79-.02-1.61.06-2.46.02-.19.04-.38.06-.57.09-.8.24-1.63.44-2.48,2.52-10.89,11.71-17.6,24.63-18.14.15,0,.29-.02.44-.02.42-.02.85-.02,1.62,0,.05,0,.09.02.13.03.04.01.08.03.12.04.02.01.05.02.07.03,0,0,.01,0,.02,0,.01,0,.03.01.04.02.03.02.05.03.08.05.03.02.06.05.08.07.02.03.04.05.06.08.02.03.03.05.04.08.01.03.02.05.03.08.02.07.02.14,0,.22l-.29,1.26-.47,2.04c-.02.08-.02.17,0,.24,0-.01,0-.02-.01-.04l1.44,5.26Z"/>
        <path class="cls-6" d="m47.27,11.02c-.08.5-.18,1.01-.3,1.52l-1.51,6.53-1.78-9.53,1.51-6.53c.12-.52.22-1.02.3-1.52,0-.03,1.78,9.36,1.78,9.36.01.05.01.11,0,.17Z"/>
        <path class="cls-6" d="m45.46,19.08c-.09.41-.66.74-1.26.74h-5.18c-.5,0-1.5-.34-1.56-.65l1.09-4.67-2.23-4.74s0,.03.01.04c0,.02.01.04.02.06.02.04.04.08.07.12t0,0s.04.05.07.07c.02.02.05.04.07.06.17.12.41.19.68.19h5.17c.61,0,1.17-.34,1.26-.74l1.78,9.53Z"/>
        <path class="cls-6" d="m50.68,29.41c-.12.52-.27,1.02-.46,1.51h0c-.32.87-.75,1.7-1.27,2.49-.96,1.46-2.23,2.77-3.76,3.92-.36.27-.74.53-1.13.78h-9.46c-.27,0-.51-.07-.67-.19-.13-.09-.22-.21-.25-.35,0,0-1.57-9.48-1.57-9.48,0,.03.02.05.03.07,0,0,0,0,0,0,.01.03.03.05.05.08.02.02.04.05.06.07,0,0,.01.01.02.02.02.02.05.04.07.06.16.12.4.18.67.18h16.76c.06,0,.12,0,.18.01.02,0,.04,0,.06.01.05,0,.11.02.15.04.02,0,.04.02.06.02.03.01.05.03.08.04.03.01.05.03.07.05.02.01.04.03.06.05.03.02.05.05.07.07.01.01.02.03.03.04.02.03.04.06.05.09.01.02.02.04.03.06.02.06.04.12.05.18.01.05.02.11.02.17Z"/>
        <path class="cls-6" d="m73.83,44.72c-1.06-1.54-2.55-2.81-4.44-3.81-1.06-.56-2.24-1.03-3.55-1.41-1.14-.34-2.38-.61-3.7-.81-.68,0-1.37.38-1.53.84-.49,1.46-1.09,2.79-1.81,4.04-.82,1.43-1.81,2.76-2.95,3.99-4.14,4.44-10.28,7.49-17.96,8.85-2.62.46-5.43.73-8.39.79-.55.01-.94.02-1.33.02-.41,0-.82,0-1.23-.02-3.73-.08-7.09-.55-10.03-1.37-4.71-1.29-8.38-3.48-10.86-6.41-1.76-2.07-2.93-4.53-3.45-7.3l-1.73-9.25c.02.08.03.16.05.23.04.17.08.34.12.51,0,0,0,.02,0,.02.04.15.08.31.12.46,0,.02,0,.03.02.05.03.11.06.22.1.33,0,.02.01.03.02.05.02.05.03.1.05.15,0,.01,0,.02.01.03,0,.03.02.05.03.08.03.11.07.21.11.31.06.16.12.32.18.48.08.21.17.41.26.61.05.11.09.22.15.32.06.13.13.26.19.39.07.13.14.26.21.39,0,0,0,0,0,.01.04.07.08.14.12.21.13.23.26.45.41.67.05.08.11.17.16.25.02.03.04.06.06.09.05.08.11.17.17.25.09.13.18.25.27.38.08.11.16.21.24.32.12.15.23.29.35.43,2.48,2.93,6.15,5.12,10.86,6.41,2.95.82,6.31,1.28,10.03,1.37.41.01.82.02,1.23.02s.78,0,1.33-.02c2.97-.06,5.77-.33,8.39-.79,7.69-1.36,13.82-4.4,17.96-8.85,1.14-1.23,2.13-2.56,2.95-3.99.72-1.25,1.32-2.57,1.81-4.04.16-.46.85-.84,1.53-.84,1.33.2,2.57.47,3.71.81,1.31.38,2.49.86,3.55,1.42.13.07.27.14.4.22.13.07.25.14.37.22,0,0,0,0,.01,0,0,0,0,0,.01,0,.1.06.19.12.28.18.15.09.29.19.44.29.11.08.22.16.33.24.11.08.21.16.32.25.09.07.18.14.27.22.03.02.05.04.08.06.09.08.19.16.28.25.05.04.1.09.15.14.05.04.1.09.15.14.1.09.19.19.28.28.09.09.18.19.27.29.09.1.17.2.26.3.08.1.16.2.25.31.08.11.16.22.24.33.08.11.15.22.23.34.06.08.11.17.16.26,0,0,0,.01.01.02.02.04.05.08.07.12.07.12.13.23.2.35.05.08.09.17.13.26.06.12.12.23.17.35.06.12.11.24.16.36.05.12.1.24.15.37.02.05.04.1.06.15,0,.03.02.05.03.08.02.05.04.1.05.15.02.06.04.13.06.19.02.06.04.13.06.19.03.09.05.18.08.27.02.06.04.13.05.19.02.09.04.18.07.28,0,.02,0,.03.01.05.03.13.06.26.08.4h0c.3,1.59.31,3.34.03,5.25Z"/>
        <path class="cls-6" d="m32.76,64.33h-.9c-.27-.05-.48-.17-.59-.34-.03-.05-.06-.11-.07-.16,0,0,0-.02,0-.03h0s0-.05,0-.07c0-.04,0-.08.01-.12l.76-3.3c.02-.07.8,4.03.8,4.03Z"/>
        <path class="cls-6" d="m83.84,56.03c-3.34,14.48-17.03,22.98-37,22.98h-21.68c-.5,0-.86-.23-.92-.54,0,0-1.55-9.41-1.52-9.37,0,.01.01.02.02.03.02.03.04.05.06.07.03.03.06.06.1.08.02.02.04.03.06.04.16.1.38.15.63.15h21.48c19.96,0,33.65-8.5,37-22.98.51-2.21.71-4.28.62-6.21,0-.11-.01-.22-.02-.32,0-.1-.01-.19-.02-.29,0-.1-.02-.2-.03-.29,0-.08-.01-.15-.02-.22,0-.07-.02-.13-.03-.2,0-.09-.02-.17-.03-.26-.03-.2-.06-.4-.09-.59,0-.04-.01-.08-.02-.12l1.78,9.53c.48,2.54.37,5.38-.35,8.51Z"/>
      </g>
      <g>
        <path class="cls-3" d="m83.66,55.55c-3.34,14.48-17.03,22.98-37,22.98h-21.48c-.25,0-.47-.06-.63-.15-.02-.01-.04-.02-.06-.04-.04-.03-.07-.05-.1-.08-.02-.02-.04-.05-.06-.07,0-.01-.02-.02-.02-.03-.03-.04-.04-.08-.05-.13,0-.01,0-.02,0-.03-.01-.06-.01-.13,0-.21l.44-1.9,1.51-6.53c.09-.41.66-.74,1.26-.74h5.18c.6,0,1.01.33.92.74l-.76,3.3s-.01.08-.01.12c0,.02,0,.05,0,.07h0s0,.03,0,.03c.01.06.04.11.07.16.11.16.32.29.59.34h13.83c3.17,0,6.11-.28,8.8-.82,10.24-2.05,16.9-7.92,18.99-16.94.15-.63.26-1.25.35-1.85.28-1.91.27-3.66-.03-5.25h0c-.03-.14-.05-.27-.08-.4,0-.02,0-.03-.01-.05-.02-.09-.04-.19-.07-.28-.02-.06-.03-.13-.05-.19-.02-.09-.05-.18-.08-.27-.02-.06-.04-.13-.06-.19-.02-.06-.04-.13-.06-.19-.02-.05-.03-.1-.05-.15,0-.03-.02-.05-.03-.08-.02-.05-.04-.1-.06-.15-.05-.13-.09-.25-.15-.37-.05-.12-.1-.24-.16-.36-.05-.12-.11-.24-.17-.35-.04-.08-.09-.17-.13-.26-.06-.12-.13-.23-.2-.35-.02-.04-.05-.08-.07-.12,0,0,0-.01-.01-.02-.05-.09-.11-.17-.16-.26-.07-.11-.15-.23-.23-.34-.08-.11-.16-.22-.24-.33-.08-.1-.16-.21-.25-.31-.08-.1-.17-.2-.26-.3-.09-.1-.18-.2-.27-.29-.09-.1-.18-.19-.28-.28-.05-.05-.09-.1-.15-.14-.05-.05-.1-.09-.15-.14-.09-.08-.19-.17-.28-.25-.03-.02-.05-.04-.08-.06-.09-.07-.18-.15-.27-.22-.11-.08-.21-.17-.32-.25-.11-.08-.22-.16-.33-.24-.14-.1-.29-.19-.44-.29-.09-.06-.19-.12-.28-.18,0,0,0,0-.01,0,0,0,0,0-.01,0-.12-.07-.25-.15-.37-.22-.13-.07-.26-.15-.4-.22-1.06-.56-2.24-1.03-3.55-1.42-1.14-.34-2.38-.61-3.71-.81-.68,0-1.37.38-1.53.84-.49,1.46-1.09,2.79-1.81,4.04-.82,1.43-1.82,2.76-2.95,3.99-4.14,4.45-10.28,7.49-17.96,8.85-2.63.46-5.43.73-8.39.79-.55.01-.94.02-1.33.02-.41,0-.82,0-1.23-.02-3.73-.08-7.09-.55-10.03-1.37-4.71-1.29-8.38-3.48-10.86-6.41-.12-.14-.24-.28-.35-.43-.08-.11-.16-.21-.24-.32-.09-.13-.18-.25-.27-.38-.06-.08-.12-.16-.17-.25-.02-.03-.04-.06-.06-.09-.05-.08-.11-.16-.16-.25-.14-.22-.28-.45-.41-.67-.04-.07-.08-.14-.12-.21,0,0,0,0,0-.01-.07-.13-.14-.26-.21-.39-.06-.13-.13-.26-.19-.39-.05-.11-.1-.21-.15-.32-.09-.2-.18-.41-.26-.61-.06-.16-.12-.32-.18-.48-.04-.1-.07-.21-.11-.31,0-.03-.02-.05-.03-.08,0,0,0-.02-.01-.03-.02-.05-.03-.1-.05-.15,0-.02-.01-.03-.02-.05-.03-.11-.07-.22-.1-.33,0-.02-.01-.04-.02-.05-.04-.15-.08-.31-.12-.46,0,0,0-.02,0-.02-.04-.17-.08-.34-.12-.51-.02-.08-.03-.15-.05-.23-.02-.08-.03-.16-.05-.24v-.05c-.51-2.67-.41-5.65.34-8.88,1.69-7.32,6.18-13.28,12.67-17.37,3-1.89,6.42-3.38,10.19-4.41,2.9-.8,6-1.32,9.26-1.56,1.33-.1,2.68-.15,4.06-.15s2.63.05,3.88.15c1.25.1,2.45.24,3.61.43.39.07.65.27.69.54,0,.02,0,.05,0,.07,0,.03,0,.06,0,.08-.08.5-.18,1.01-.3,1.52l-1.51,6.53c-.09.41-.66.74-1.26.74h-5.17c-.28,0-.52-.07-.68-.19-.03-.02-.05-.04-.07-.06-.02-.02-.05-.05-.07-.07t0,0s-.05-.07-.07-.12c0-.02-.02-.04-.02-.06-.02-.07-.02-.16,0-.24l.47-2.04.29-1.26c.02-.08.02-.15,0-.22,0-.03-.02-.06-.03-.08-.01-.03-.02-.05-.04-.08-.02-.03-.04-.05-.06-.08-.02-.03-.05-.05-.08-.07-.03-.02-.05-.04-.08-.05-.01,0-.03-.02-.04-.02,0,0-.01,0-.02,0-.02-.01-.05-.02-.07-.03-.04-.02-.08-.03-.12-.04-.04-.01-.08-.02-.13-.03-.76-.02-1.19-.02-1.62,0-.14,0-.29.01-.44.02-12.92.54-22.11,7.25-24.63,18.14-.2.85-.34,1.68-.44,2.48-.02.19-.04.38-.06.57-.08.85-.09,1.67-.06,2.46,0,.03,0,.06,0,.09.02.26.04.52.06.78.02.18.04.36.07.54.03.18.05.35.08.53.09.52.22,1.03.36,1.52.32,1.05.77,2.03,1.34,2.92.05.09.11.17.17.26,1.42,2.12,3.54,3.77,6.29,4.89.51.21,1.05.4,1.6.57,2.41.74,5.22,1.13,8.4,1.13.39,0,.78,0,1.17-.02,2.54-.07,4.96-.39,7.19-.92.5-.12.99-.25,1.48-.39.87-.25,1.7-.54,2.5-.85,1.5-.59,2.89-1.3,4.13-2.1.39-.25.77-.51,1.13-.78,1.53-1.15,2.8-2.46,3.76-3.92.52-.79.95-1.62,1.27-2.49h0c.19-.49.34-.99.46-1.51,0-.06,0-.12-.02-.17-.01-.07-.03-.13-.05-.18,0-.02-.02-.04-.03-.06-.01-.03-.03-.06-.05-.09-.01-.01-.02-.03-.03-.04-.02-.03-.04-.05-.07-.07-.02-.02-.04-.03-.06-.05-.02-.02-.05-.04-.07-.05-.03-.02-.05-.03-.08-.04-.02,0-.04-.02-.06-.02-.05-.02-.1-.03-.15-.04-.02,0-.04,0-.06-.01-.06,0-.12-.01-.18-.01h-16.76c-.27,0-.51-.07-.67-.18-.03-.02-.05-.04-.07-.06,0,0-.01-.01-.02-.02-.02-.02-.04-.05-.06-.07-.02-.03-.04-.05-.05-.08,0,0,0,0,0,0-.01-.02-.02-.05-.03-.07,0,0,0,0,0-.01-.02-.08-.03-.16,0-.25l.82-3.54c.09-.41.66-.74,1.26-.74h21.48c1.64,0,3.21.06,4.71.17,1.81.14,3.53.36,5.14.66,2.55.47,4.83,1.15,6.83,2.01,5.69,2.46,9.15,6.44,10.09,11.73.04.19.07.39.09.59.01.08.02.17.03.26.01.07.02.13.03.2.01.07.02.15.02.22.01.1.02.19.03.29.01.09.02.19.02.29,0,.11.01.21.02.32.09,1.93-.11,4-.62,6.21Z"/>
        <path class="cls-2" d="m83.33,52.89c-3.34,14.48-17.03,22.98-37,22.98h-21.48c-.25,0-.47-.06-.63-.15-.02-.01-.04-.02-.06-.04-.04-.03-.07-.05-.1-.08-.02-.02-.04-.05-.06-.07,0-.01-.02-.02-.02-.03-.03-.04-.04-.08-.05-.13,0-.01,0-.02,0-.03-.01-.06-.01-.13,0-.21l.44-1.9,1.51-6.53c.09-.41.66-.74,1.26-.74h5.18c.6,0,1.01.33.92.74l-.76,3.3s-.01.08-.01.12c0,.02,0,.05,0,.07h0s0,.03,0,.03c.01.06.04.11.07.16.11.16.32.29.59.34h13.83c3.17,0,6.11-.28,8.8-.82,10.24-2.05,16.9-7.92,18.99-16.94.15-.63.26-1.25.35-1.85.28-1.91.27-3.66-.03-5.25h0c-.03-.14-.05-.27-.08-.4,0-.02,0-.03-.01-.05-.02-.09-.04-.19-.07-.28-.02-.06-.03-.13-.05-.19-.02-.09-.05-.18-.08-.27-.02-.06-.04-.13-.06-.19-.02-.06-.04-.13-.06-.19-.02-.05-.03-.1-.05-.15,0-.03-.02-.05-.03-.08-.02-.05-.04-.1-.06-.15-.05-.12-.1-.25-.15-.37s-.1-.24-.16-.36c-.05-.12-.11-.24-.17-.35-.04-.08-.09-.17-.13-.26-.06-.12-.13-.23-.2-.35-.02-.04-.05-.08-.07-.12,0,0,0-.01-.01-.02-.05-.09-.11-.17-.16-.26-.07-.11-.15-.22-.23-.34s-.16-.22-.24-.33-.16-.21-.25-.31c-.08-.1-.17-.2-.26-.3s-.18-.2-.27-.29-.19-.19-.28-.28c-.05-.05-.09-.1-.15-.14-.05-.05-.1-.09-.15-.14-.09-.08-.19-.17-.28-.25-.03-.02-.05-.04-.08-.06-.09-.07-.18-.15-.27-.22-.11-.08-.21-.17-.32-.25s-.22-.16-.33-.24c-.14-.1-.29-.19-.44-.29-.1-.06-.19-.12-.28-.18,0,0,0,0-.01,0,0,0,0,0-.01,0-.12-.07-.25-.15-.37-.22s-.26-.15-.4-.22c-1.05-.56-2.24-1.03-3.55-1.42-1.14-.34-2.38-.61-3.71-.81-.68,0-1.37.38-1.53.84-.5,1.46-1.09,2.79-1.81,4.04-.82,1.43-1.82,2.76-2.95,3.99-4.14,4.45-10.28,7.49-17.96,8.85-2.63.46-5.43.73-8.39.79-.55.01-.94.02-1.33.02-.41,0-.82,0-1.23-.02-3.73-.08-7.09-.55-10.03-1.37-4.71-1.29-8.37-3.49-10.86-6.41-.12-.14-.24-.28-.35-.43-.08-.1-.16-.21-.24-.32-.09-.12-.18-.25-.27-.38-.06-.08-.12-.16-.17-.25-.02-.03-.04-.06-.06-.09-.05-.08-.11-.16-.16-.25-.14-.22-.28-.45-.41-.67-.04-.07-.08-.14-.12-.21,0,0,0,0,0-.01-.07-.13-.14-.26-.21-.39s-.13-.26-.19-.39c-.05-.11-.1-.21-.15-.32-.09-.2-.17-.41-.26-.61-.06-.16-.12-.32-.18-.48-.04-.1-.07-.21-.11-.31,0-.03-.02-.05-.03-.08,0,0,0-.02-.01-.03-.02-.05-.03-.1-.05-.15,0-.02-.01-.03-.02-.05-.03-.11-.07-.22-.1-.33,0-.02-.01-.04-.02-.05-.04-.15-.08-.31-.12-.46,0,0,0-.02,0-.02-.04-.17-.08-.34-.12-.51-.02-.08-.03-.15-.05-.23s-.03-.16-.05-.24v-.05c-.51-2.67-.41-5.65.34-8.88,1.69-7.32,6.18-13.28,12.67-17.37,3-1.89,6.42-3.38,10.19-4.41,2.9-.8,6-1.32,9.26-1.56,1.33-.1,2.68-.15,4.06-.15s2.63.05,3.88.15c1.25.1,2.45.24,3.61.43.39.07.65.27.69.54,0,.02,0,.05,0,.07,0,.03,0,.06,0,.08-.08.5-.18,1.01-.3,1.52l-1.51,6.53c-.09.41-.66.74-1.26.74h-5.17c-.28,0-.52-.07-.68-.19-.03-.02-.05-.04-.07-.06-.02-.02-.05-.05-.07-.07t0,0s-.05-.07-.07-.12c0-.02-.02-.04-.02-.06-.02-.07-.02-.16,0-.24l.47-2.04.29-1.26c.02-.08.02-.15,0-.22,0-.03-.02-.06-.03-.08-.01-.03-.02-.05-.04-.08-.02-.03-.04-.05-.06-.08-.02-.03-.05-.05-.08-.07-.03-.02-.05-.04-.08-.05-.01,0-.03-.02-.04-.02,0,0-.01,0-.02,0-.02-.01-.05-.02-.07-.03-.04-.02-.08-.03-.12-.04-.04-.01-.08-.02-.13-.03-.76-.02-1.19-.01-1.62,0-.14,0-.29.01-.44.02-12.92.61-22.11,7.25-24.63,18.14-.2.85-.34,1.68-.44,2.48-.02.19-.04.38-.06.57-.08.85-.09,1.67-.06,2.46,0,.03,0,.06,0,.09.02.26.03.52.06.78.02.18.04.36.07.54.03.18.05.35.08.53.09.52.22,1.03.36,1.52.32,1.05.77,2.02,1.34,2.92.05.09.11.17.17.26,1.42,2.11,3.54,3.77,6.29,4.89.51.21,1.05.4,1.6.57,2.41.74,5.22,1.13,8.4,1.13.39,0,.78,0,1.17-.02,2.54-.08,4.96-.39,7.19-.92.5-.12.99-.25,1.48-.39.87-.25,1.7-.54,2.5-.85,1.5-.59,2.89-1.3,4.13-2.1.39-.25.77-.51,1.13-.78,1.53-1.15,2.8-2.46,3.76-3.92.52-.79.95-1.62,1.27-2.49h0c.19-.49.34-.99.46-1.51,0-.06,0-.12-.02-.17-.01-.07-.03-.13-.05-.18,0-.02-.02-.04-.03-.06-.01-.03-.03-.06-.05-.09-.01-.01-.02-.03-.03-.04-.02-.03-.04-.05-.07-.07-.02-.02-.04-.03-.06-.05-.02-.02-.05-.04-.07-.05-.03-.02-.05-.03-.08-.04-.02,0-.04-.02-.06-.02-.05-.02-.1-.03-.15-.04-.02,0-.04,0-.06-.01-.06,0-.12-.01-.18-.01h-16.76c-.27,0-.51-.07-.67-.18-.03-.02-.05-.04-.07-.06,0,0-.01-.01-.02-.02-.02-.02-.04-.05-.06-.07-.02-.03-.04-.05-.05-.08,0,0,0,0,0,0-.01-.02-.02-.05-.03-.07,0,0,0,0,0-.01-.02-.08-.03-.16,0-.25l.82-3.54c.09-.41.66-.74,1.26-.74h21.48c1.64,0,3.21.06,4.71.17,1.81.14,3.53.36,5.14.66,2.55.47,4.83,1.15,6.83,2.01,5.69,2.46,9.13,6.44,10.09,11.73.04.19.07.4.09.59.01.08.02.17.03.26.01.07.02.13.03.2,0,.07.02.15.02.22.01.1.02.19.03.29.01.09.02.19.02.29,0,.11.01.21.02.32.09,1.93-.11,4-.62,6.21Z"/>
        <path class="cls-1" d="m82.57,50.04c-3.34,14.48-17.03,22.98-37,22.98h-21.48c-.25,0-.47-.06-.63-.15-.02-.01-.04-.02-.06-.04-.04-.03-.07-.05-.1-.08-.02-.02-.04-.05-.06-.07,0-.01-.02-.02-.02-.03-.03-.04-.04-.08-.05-.13,0-.01,0-.02,0-.03-.01-.06-.01-.13,0-.21l.44-1.9,1.51-6.53c.09-.41.66-.74,1.26-.74h5.18c.6,0,1.01.33.92.74l-.76,3.3s-.01.08-.01.12c0,.02,0,.05,0,.07h0s0,.03,0,.03c.01.06.04.11.07.16.11.16.32.29.59.34h13.83c3.17,0,6.11-.28,8.8-.82,10.24-2.05,16.9-7.92,18.99-16.94.15-.63.26-1.25.35-1.85.28-1.91.27-3.66-.03-5.25h0c-.03-.14-.05-.27-.08-.4,0-.02,0-.03-.01-.05-.02-.09-.04-.19-.07-.28-.02-.06-.03-.13-.05-.19-.02-.09-.05-.18-.08-.27-.02-.06-.04-.13-.06-.19-.02-.06-.04-.13-.06-.19-.02-.05-.03-.1-.05-.15,0-.03-.02-.05-.03-.08-.02-.05-.04-.1-.06-.15-.05-.13-.09-.25-.15-.37-.05-.12-.1-.24-.16-.36-.05-.12-.11-.24-.17-.35-.04-.08-.09-.17-.13-.26-.06-.12-.13-.23-.2-.35-.02-.04-.05-.08-.07-.12,0,0,0-.01-.01-.02-.05-.09-.11-.17-.16-.26-.07-.11-.15-.23-.23-.34-.08-.11-.16-.22-.24-.33-.08-.1-.16-.21-.25-.31-.08-.1-.17-.2-.26-.3-.09-.1-.18-.2-.27-.29-.09-.1-.18-.19-.28-.28-.05-.05-.09-.1-.15-.14-.05-.05-.1-.09-.15-.14-.09-.08-.19-.17-.28-.25-.03-.02-.05-.04-.08-.06-.09-.07-.18-.15-.27-.22-.11-.08-.21-.17-.32-.25-.11-.08-.22-.16-.33-.24-.14-.1-.29-.19-.44-.29-.09-.06-.19-.12-.28-.18,0,0,0,0-.01,0,0,0,0,0-.01,0-.12-.07-.25-.15-.37-.22-.13-.07-.26-.15-.4-.22-1.06-.56-2.24-1.03-3.55-1.42-1.14-.34-2.38-.61-3.71-.81-.68,0-1.37.38-1.53.84-.49,1.46-1.09,2.79-1.81,4.04-.82,1.43-1.82,2.76-2.95,3.99-4.14,4.45-10.28,7.49-17.96,8.85-2.63.46-5.43.73-8.39.79-.55.01-.94.02-1.33.02-.41,0-.82,0-1.23-.02-3.73-.08-7.09-.55-10.03-1.37-4.71-1.29-8.38-3.48-10.86-6.41-.12-.14-.24-.28-.35-.43-.08-.11-.16-.21-.24-.32-.09-.13-.18-.25-.27-.38-.06-.08-.12-.16-.17-.25-.02-.03-.04-.06-.06-.09-.05-.08-.11-.16-.16-.25-.14-.22-.28-.45-.41-.67-.04-.07-.08-.14-.12-.21,0,0,0,0,0-.01-.07-.13-.14-.26-.21-.39-.06-.13-.13-.26-.19-.39-.05-.11-.1-.21-.15-.32-.09-.2-.18-.41-.26-.61-.06-.16-.12-.32-.18-.48-.04-.1-.07-.21-.11-.31,0-.03-.02-.05-.03-.08,0,0,0-.02-.01-.03-.02-.05-.03-.1-.05-.15,0-.02-.01-.03-.02-.05-.03-.11-.07-.22-.1-.33,0-.02-.01-.04-.02-.05-.04-.15-.08-.31-.12-.46,0,0,0-.02,0-.02-.04-.17-.08-.34-.12-.51-.02-.08-.03-.15-.05-.23-.02-.08-.03-.16-.05-.24v-.05c-.51-2.67-.41-5.65.34-8.88,1.69-7.32,6.18-13.28,12.67-17.37,3-1.89,6.42-3.38,10.19-4.41,2.9-.8,6-1.32,9.26-1.56,1.33-.1,2.68-.15,4.06-.15s2.63.05,3.88.15c1.25.1,2.45.24,3.61.43.39.07.65.27.69.54,0,.02,0,.05,0,.07,0,.03,0,.06,0,.08-.08.5-.18,1.01-.3,1.52l-1.51,6.53c-.09.41-.66.74-1.26.74h-5.17c-.28,0-.52-.07-.68-.19-.03-.02-.05-.04-.07-.06-.02-.02-.05-.05-.07-.07t0,0s-.05-.07-.07-.12c0-.02-.02-.04-.02-.06-.02-.07-.02-.16,0-.24l.47-2.04.29-1.26c.02-.08.02-.15,0-.22,0-.03-.02-.06-.03-.08-.01-.03-.02-.05-.04-.08-.02-.03-.04-.05-.06-.08-.02-.03-.05-.05-.08-.07-.03-.02-.05-.04-.08-.05-.01,0-.03-.02-.04-.02,0,0-.01,0-.02,0-.02-.01-.05-.02-.07-.03-.04-.02-.08-.03-.12-.04-.04-.01-.08-.02-.13-.03-.76-.02-1.19-.02-1.62,0-.14,0-.29.01-.44.02-12.92.54-22.11,7.25-24.63,18.14-.2.85-.34,1.68-.44,2.48-.02.19-.04.38-.06.57-.08.85-.09,1.67-.06,2.46,0,.03,0,.06,0,.09.02.26.04.52.06.78.02.18.04.36.07.54.03.18.05.35.08.53.09.52.22,1.03.36,1.52.32,1.05.77,2.03,1.34,2.92.05.09.11.17.17.26,1.42,2.12,3.54,3.77,6.29,4.89.51.21,1.05.4,1.6.57,2.41.74,5.22,1.13,8.4,1.13.39,0,.78,0,1.17-.02,2.54-.07,4.96-.39,7.19-.92.5-.12.99-.25,1.48-.39.87-.25,1.7-.54,2.5-.85,1.5-.59,2.89-1.3,4.13-2.1.39-.25.77-.51,1.13-.78,1.53-1.15,2.8-2.46,3.76-3.92.52-.79.95-1.62,1.27-2.49h0c.19-.49.34-.99.46-1.51,0-.06,0-.12-.02-.17-.01-.07-.03-.13-.05-.18,0-.02-.02-.04-.03-.06-.01-.03-.03-.06-.05-.09-.01-.01-.02-.03-.03-.04-.02-.03-.04-.05-.07-.07-.02-.02-.04-.03-.06-.05-.02-.02-.05-.04-.07-.05-.03-.02-.05-.03-.08-.04-.02,0-.04-.02-.06-.02-.05-.02-.1-.03-.15-.04-.02,0-.04,0-.06-.01-.06,0-.12-.01-.18-.01h-16.76c-.27,0-.51-.07-.67-.18-.03-.02-.05-.04-.07-.06,0,0-.01-.01-.02-.02-.02-.02-.04-.05-.06-.07-.02-.03-.04-.05-.05-.08,0,0,0,0,0,0-.01-.02-.02-.05-.03-.07,0,0,0,0,0-.01-.02-.08-.03-.16,0-.25l.82-3.54c.09-.41.66-.74,1.26-.74h21.48c1.64,0,3.21.06,4.71.17,1.81.14,3.53.36,5.14.66,2.55.47,4.83,1.15,6.83,2.01,5.69,2.46,9.15,6.44,10.09,11.73.04.19.07.39.09.59.01.08.02.17.03.26.01.07.02.13.03.2.01.07.02.15.02.22.01.1.02.19.03.29.01.09.02.19.02.29,0,.11.01.21.02.32.09,1.93-.11,4-.62,6.21Z"/>
      </g>
      <path class="cls-5" d="m82.05,46.77c-3.34,14.48-17.03,22.98-37,22.98h-21.48c-.25,0-.47-.06-.63-.15-.02-.01-.04-.02-.06-.04-.04-.03-.07-.05-.1-.08-.02-.02-.04-.05-.06-.07,0-.01-.02-.02-.02-.03-.03-.04-.04-.08-.05-.13,0-.01,0-.02,0-.03-.01-.06-.01-.13,0-.21l.44-1.9,1.51-6.53c.09-.41.66-.74,1.26-.74h5.18c.6,0,1.01.33.92.74l-.76,3.3s-.01.08-.01.12c0,.02,0,.05,0,.07h0s0,.03,0,.03c.01.06.04.11.07.16.11.16.32.29.59.34h13.83c3.17,0,6.11-.28,8.8-.82,10.24-2.05,16.9-7.92,18.99-16.94.15-.63.26-1.25.35-1.85.28-1.91.27-3.66-.03-5.25h0c-.03-.14-.05-.27-.08-.4,0-.02,0-.03-.01-.05-.02-.09-.04-.19-.07-.28-.02-.06-.03-.13-.05-.19-.02-.09-.05-.18-.08-.27-.02-.06-.04-.13-.06-.19-.02-.06-.04-.13-.06-.19-.02-.05-.03-.1-.05-.15,0-.03-.02-.05-.03-.08-.02-.05-.04-.1-.06-.15-.05-.13-.09-.25-.15-.37-.05-.12-.1-.24-.16-.36-.05-.12-.11-.24-.17-.35-.04-.08-.09-.17-.13-.26-.06-.12-.13-.23-.2-.35-.02-.04-.05-.08-.07-.12,0,0,0-.01-.01-.02-.05-.09-.11-.17-.16-.26-.07-.11-.15-.23-.23-.34-.08-.11-.16-.22-.24-.33-.08-.1-.16-.21-.25-.31-.08-.1-.17-.2-.26-.3-.09-.1-.18-.2-.27-.29-.09-.1-.18-.19-.28-.28-.05-.05-.09-.1-.15-.14-.05-.05-.1-.09-.15-.14-.09-.08-.19-.17-.28-.25-.03-.02-.05-.04-.08-.06-.09-.07-.18-.15-.27-.22-.11-.08-.21-.17-.32-.25-.11-.08-.22-.16-.33-.24-.14-.1-.29-.19-.44-.29-.09-.06-.19-.12-.28-.18,0,0,0,0-.01,0,0,0,0,0-.01,0-.12-.07-.25-.15-.37-.22-.13-.07-.26-.15-.4-.22-1.06-.56-2.24-1.03-3.55-1.42-1.14-.34-2.38-.61-3.71-.81-.68,0-1.37.38-1.53.84-.49,1.46-1.09,2.79-1.81,4.04-.82,1.43-1.82,2.76-2.95,3.99-4.14,4.45-10.28,7.49-17.96,8.85-2.63.46-5.43.73-8.39.79-.55.01-.94.02-1.33.02-.41,0-.82,0-1.23-.02-3.73-.08-7.09-.55-10.03-1.37-4.71-1.29-8.38-3.48-10.86-6.41-.12-.14-.24-.28-.35-.43-.08-.11-.16-.21-.24-.32-.09-.13-.18-.25-.27-.38-.06-.08-.12-.16-.17-.25-.02-.03-.04-.06-.06-.09-.05-.08-.11-.16-.16-.25-.14-.22-.28-.45-.41-.67-.04-.07-.08-.14-.12-.21,0,0,0,0,0-.01-.07-.13-.14-.26-.21-.39-.06-.13-.13-.26-.19-.39-.05-.11-.1-.21-.15-.32-.09-.2-.18-.41-.26-.61-.06-.16-.12-.32-.18-.48-.04-.1-.07-.21-.11-.31,0-.03-.02-.05-.03-.08,0,0,0-.02-.01-.03-.02-.05-.03-.1-.05-.15,0-.02-.01-.03-.02-.05-.03-.11-.07-.22-.1-.33,0-.02-.01-.04-.02-.05-.04-.15-.08-.31-.12-.46,0,0,0-.02,0-.02-.04-.17-.08-.34-.12-.51-.02-.08-.03-.15-.05-.23-.02-.08-.03-.16-.05-.24v-.05c-.51-2.67-.41-5.65.34-8.88,1.69-7.32,6.18-13.28,12.67-17.37,3-1.89,6.42-3.38,10.19-4.41,2.9-.8,6-1.32,9.26-1.56,1.33-.1,2.68-.15,4.06-.15s2.63.05,3.88.15c1.25.1,2.45.24,3.61.43.39.07.65.27.69.54,0,.02,0,.05,0,.07,0,.03,0,.06,0,.08-.08.5-.18,1.01-.3,1.52l-1.51,6.53c-.09.41-.66.74-1.26.74h-5.17c-.28,0-.52-.07-.68-.19-.03-.02-.05-.04-.07-.06-.02-.02-.05-.05-.07-.07t0,0s-.05-.07-.07-.12c0-.02-.02-.04-.02-.06-.02-.07-.02-.16,0-.24l.47-2.04.29-1.26c.02-.08.02-.15,0-.22,0-.03-.02-.06-.03-.08-.01-.03-.02-.05-.04-.08-.02-.03-.04-.05-.06-.08-.02-.03-.05-.05-.08-.07-.03-.02-.05-.04-.08-.05-.01,0-.03-.02-.04-.02,0,0-.01,0-.02,0-.02-.01-.05-.02-.07-.03-.04-.02-.08-.03-.12-.04-.04-.01-.08-.02-.13-.03-.76-.02-1.19-.02-1.62,0-.14,0-.29.01-.44.02-12.92.54-22.11,7.25-24.63,18.14-.2.85-.34,1.68-.44,2.48-.02.19-.04.38-.06.57-.08.85-.09,1.67-.06,2.46,0,.03,0,.06,0,.09.02.26.04.52.06.78.02.18.04.36.07.54.03.18.05.35.08.53.09.52.22,1.03.36,1.52.32,1.05.77,2.03,1.34,2.92.05.09.11.17.17.26,1.42,2.12,3.54,3.77,6.29,4.89.51.21,1.05.4,1.6.57,2.41.74,5.22,1.13,8.4,1.13.39,0,.78,0,1.17-.02,2.54-.07,4.96-.39,7.19-.92.5-.12.99-.25,1.48-.39.87-.25,1.7-.54,2.5-.85,1.5-.59,2.89-1.3,4.13-2.1.39-.25.77-.51,1.13-.78,1.53-1.15,2.8-2.46,3.76-3.92.52-.79.95-1.62,1.27-2.49h0c.19-.49.34-.99.46-1.51,0-.06,0-.12-.02-.17-.01-.07-.03-.13-.05-.18,0-.02-.02-.04-.03-.06-.01-.03-.03-.06-.05-.09-.01-.01-.02-.03-.03-.04-.02-.03-.04-.05-.07-.07-.02-.02-.04-.03-.06-.05-.02-.02-.05-.04-.07-.05-.03-.02-.05-.03-.08-.04-.02,0-.04-.02-.06-.02-.05-.02-.1-.03-.15-.04-.02,0-.04,0-.06-.01-.06,0-.12-.01-.18-.01h-16.76c-.27,0-.51-.07-.67-.18-.03-.02-.05-.04-.07-.06,0,0-.01-.01-.02-.02-.02-.02-.04-.05-.06-.07-.02-.03-.04-.05-.05-.08,0,0,0,0,0,0-.01-.02-.02-.05-.03-.07,0,0,0,0,0-.01-.02-.08-.03-.16,0-.25l.82-3.54c.09-.41.66-.74,1.26-.74h21.48c1.64,0,3.21.06,4.71.17,1.81.14,3.53.36,5.14.66,2.55.47,4.83,1.15,6.83,2.01,5.69,2.46,9.15,6.44,10.09,11.73.04.19.07.39.09.59.01.08.02.17.03.26.01.07.02.13.03.2.01.07.02.15.02.22.01.1.02.19.03.29.01.09.02.19.02.29,0,.11.01.21.02.32.09,1.93-.11,4-.62,6.21Z"/>
    </g>
  </g>
</svg>