<?xml version="1.0" encoding="UTF-8"?>
<svg id="Capa_1" data-name="Capa 1" xmlns="http://www.w3.org/2000/svg" viewBox="0 0 181 153">
  <defs>
    <style>
      .cls-1 {
        fill: #554dde;
      }

      .cls-1, .cls-2, .cls-3, .cls-4, .cls-5, .cls-6 {
        stroke-width: 0px;
      }

      .cls-2 {
        fill: #252525;
      }

      .cls-4 {
        fill: none;
        opacity: 0;
      }

      .cls-5 {
        fill: #f1f1f1;
      }

      .cls-6 {
        fill: #1e1e1f;
      }
    </style>
  </defs>
  <g>
    <rect class="cls-4" x="91" y="103" width="50" height="50"/>
    <path class="cls-5" d="m121.42,147.27h-5.94v-5.94c0-.86-.7-1.56-1.56-1.56s-1.56.7-1.56,1.56v5.94h-5.94c-.86,0-1.56.7-1.56,1.56s.7,1.56,1.56,1.56h15c.86,0,1.56-.7,1.56-1.56s-.7-1.56-1.56-1.56Z"/>
    <path class="cls-3" d="m132.67,128.42v3.54c0,6.56-3.75,9.38-9.37,9.38h-18.75c-5.63,0-9.37-2.81-9.37-9.38v-11.25c0-6.56,3.75-9.37,9.37-9.37h5.63c-.27.79-.42,1.67-.42,2.6v8.12c0,2.02.67,3.73,1.85,4.92,1.19,1.19,2.9,1.85,4.92,1.85v2.9c0,1.06,1.21,1.71,2.1,1.12l6.02-4.02h5.42c.94,0,1.81-.15,2.6-.42Z"/>
    <path class="cls-1" d="m136.83,113.94v8.12c0,3.1-1.58,5.44-4.17,6.35-.79.27-1.67.42-2.6.42h-5.42l-6.02,4.02c-.9.58-2.1-.06-2.1-1.12v-2.9c-2.02,0-3.73-.67-4.92-1.85-1.19-1.19-1.85-2.9-1.85-4.92v-8.12c0-.94.15-1.81.42-2.6.92-2.58,3.25-4.17,6.35-4.17h13.54c4.06,0,6.77,2.71,6.77,6.77Z"/>
    <rect class="cls-4" x="114.51" y="108.77" width="17.57" height="17.57"/>
  </g>
  <g>
    <rect class="cls-4" x="38" y="49" width="50" height="50"/>
    <path class="cls-5" d="m68.42,93.27h-5.94v-5.94c0-.86-.7-1.56-1.56-1.56s-1.56.7-1.56,1.56v5.94h-5.94c-.86,0-1.56.7-1.56,1.56s.7,1.56,1.56,1.56h15c.86,0,1.56-.7,1.56-1.56s-.7-1.56-1.56-1.56Z"/>
    <path class="cls-3" d="m79.67,74.42v3.54c0,6.56-3.75,9.38-9.37,9.38h-18.75c-5.63,0-9.37-2.81-9.37-9.38v-11.25c0-6.56,3.75-9.37,9.37-9.37h5.63c-.27.79-.42,1.67-.42,2.6v8.12c0,2.02.67,3.73,1.85,4.92,1.19,1.19,2.9,1.85,4.92,1.85v2.9c0,1.06,1.21,1.71,2.1,1.12l6.02-4.02h5.42c.94,0,1.81-.15,2.6-.42Z"/>
    <path class="cls-1" d="m83.83,59.94v8.12c0,3.1-1.58,5.44-4.17,6.35-.79.27-1.67.42-2.6.42h-5.42l-6.02,4.02c-.9.58-2.1-.06-2.1-1.12v-2.9c-2.02,0-3.73-.67-4.92-1.85-1.19-1.19-1.85-2.9-1.85-4.92v-8.12c0-.94.15-1.81.42-2.6.92-2.58,3.25-4.17,6.35-4.17h13.54c4.06,0,6.77,2.71,6.77,6.77Z"/>
    <g>
      <rect class="cls-4" x="61.51" y="54.77" width="17.57" height="17.57"/>
      <path class="cls-5" d="m64.25,63.5c-.3,0-.55-.25-.55-.55,0-3.13,2.34-5.76,5.44-6.12.3-.03.57.18.61.48.04.3-.18.57-.48.61-2.55.3-4.47,2.46-4.47,5.03,0,.3-.25.55-.55.55Z"/>
      <path class="cls-5" d="m76.33,63.5c-.3,0-.55-.25-.55-.55,0-2.55-1.91-4.72-4.45-5.02-.3-.04-.52-.31-.48-.61.04-.3.31-.51.61-.48,3.09.38,5.41,3.01,5.41,6.11,0,.3-.25.55-.55.55Z"/>
      <g>
        <path class="cls-3" d="m71.24,70.89h-1.88c-.67,0-1.17-.55-1.05-1.13l.31-1.35h3.36l.31,1.35c.14.62-.33,1.13-1.05,1.13Z"/>
        <path class="cls-6" d="m73.27,67.26l-1.29,1.15h-3.36l-1.29-1.15c-.75-.62-.75-1.09-.18-1.82l2.28-2.89c.16-.2.34-.33.54-.4.22-.07.44-.07.66,0,.2.07.38.21.54.4l2.28,2.89c.57.73.55,1.17-.18,1.82Z"/>
      </g>
      <g>
        <rect class="cls-6" x="68.84" y="55.87" width="2.93" height="2.93" rx="1.1" ry="1.1"/>
        <rect class="cls-6" x="62.8" y="62.58" width="2.93" height="2.93" rx="1.1" ry="1.1"/>
        <rect class="cls-6" x="74.86" y="62.58" width="2.93" height="2.93" rx="1.1" ry="1.1"/>
      </g>
    </g>
  </g>
  <g>
    <rect class="cls-4" x="92" y="49" width="50" height="50"/>
    <path class="cls-5" d="m122.42,93.27h-5.94v-5.94c0-.86-.7-1.56-1.56-1.56s-1.56.7-1.56,1.56v5.94h-5.94c-.86,0-1.56.7-1.56,1.56s.7,1.56,1.56,1.56h15c.86,0,1.56-.7,1.56-1.56s-.7-1.56-1.56-1.56Z"/>
    <path class="cls-3" d="m133.67,74.42v3.54c0,6.56-3.75,9.38-9.37,9.38h-18.75c-5.63,0-9.37-2.81-9.37-9.38v-11.25c0-6.56,3.75-9.37,9.37-9.37h5.63c-.27.79-.42,1.67-.42,2.6v8.12c0,2.02.67,3.73,1.85,4.92,1.19,1.19,2.9,1.85,4.92,1.85v2.9c0,1.06,1.21,1.71,2.1,1.12l6.02-4.02h5.42c.94,0,1.81-.15,2.6-.42Z"/>
    <path class="cls-1" d="m137.83,59.94v8.12c0,3.1-1.58,5.44-4.17,6.35-.79.27-1.67.42-2.6.42h-5.42l-6.02,4.02c-.9.58-2.1-.06-2.1-1.12v-2.9c-2.02,0-3.73-.67-4.92-1.85-1.19-1.19-1.85-2.9-1.85-4.92v-8.12c0-.94.15-1.81.42-2.6.92-2.58,3.25-4.17,6.35-4.17h13.54c4.06,0,6.77,2.71,6.77,6.77Z"/>
    <rect class="cls-4" x="115.51" y="54.77" width="17.57" height="17.57"/>
  </g>
  <rect class="cls-2" y="42" width="34" height="37"/>
  <rect class="cls-2" width="34" height="37"/>
  <g>
    <path class="cls-6" d="m29.96,54.89v8.22H4.72v-8.22c0-3.08,2.5-5.58,5.58-5.58h14.09c3.08,0,5.58,2.5,5.58,5.58Z"/>
    <path class="cls-5" d="m4.72,63.11v.26c0,3.08,2.5,5.58,5.58,5.58h4.78c.73,0,1.33.6,1.33,1.33v1.09c0,.73-.6,1.33-1.33,1.33h-3c-.52,0-.95.42-.95.95s.42.95.95.95h10.55c.52,0,.95-.42.95-.95s-.42-.95-.95-.95h-3c-.73,0-1.33-.6-1.33-1.33v-1.09c0-.73.6-1.33,1.33-1.33h4.75c3.08,0,5.58-2.5,5.58-5.58v-.26H4.72Z"/>
    <g>
      <path class="cls-1" d="m32,50.23v7.25c0,1.36-.49,2.38-1.37,2.87-.36.2-.75.29-1.16.29-.63,0-1.31-.21-2.01-.65l-2.31-1.44c-.16-.09-.34-.15-.52-.15h-.73v-9.08h.73c.18,0,.36-.06.52-.15l2.31-1.44c1.15-.72,2.28-.84,3.17-.36.88.49,1.37,1.51,1.37,2.87Z"/>
      <path class="cls-3" d="m23.91,49.32v9.08h-.39c-1.91,0-2.96-1.05-2.96-2.96v-3.16c0-1.91,1.05-2.96,2.96-2.96h.39Z"/>
    </g>
  </g>
  <g>
    <path class="cls-3" d="m29.96,13.89v8.22H4.72v-8.22c0-3.08,2.5-5.58,5.58-5.58h14.09c3.08,0,5.58,2.5,5.58,5.58Z"/>
    <path class="cls-5" d="m4.72,22.11v.26c0,3.08,2.5,5.58,5.58,5.58h4.78c.73,0,1.33.6,1.33,1.33v1.09c0,.73-.6,1.33-1.33,1.33h-3c-.52,0-.95.42-.95.95s.42.95.95.95h10.55c.52,0,.95-.42.95-.95s-.42-.95-.95-.95h-3c-.73,0-1.33-.6-1.33-1.33v-1.09c0-.73.6-1.33,1.33-1.33h4.75c3.08,0,5.58-2.5,5.58-5.58v-.26H4.72Z"/>
    <g>
      <path class="cls-1" d="m32,9.23v7.25c0,1.36-.49,2.38-1.37,2.87-.36.2-.75.29-1.16.29-.63,0-1.31-.21-2.01-.65l-2.31-1.44c-.16-.09-.34-.15-.52-.15h-.73v-9.08h.73c.18,0,.36-.06.52-.15l2.31-1.44c1.15-.72,2.28-.84,3.17-.36.88.49,1.37,1.51,1.37,2.87Z"/>
      <path class="cls-6" d="m23.91,8.32v9.08h-.39c-1.91,0-2.96-1.05-2.96-2.96v-3.16c0-1.91,1.05-2.96,2.96-2.96h.39Z"/>
    </g>
  </g>
  <g>
    <path class="cls-5" d="m167.73,84.36c0,1.52,0,3.04,0,4.56,0,.23-.12.55.16.64.14.05.39-.12.55-.24,2.8-2.04,5.64-4.02,8.38-6.13,2.79-2.16,4.15-5.07,4.14-8.62,0-2.55,0-5.11,0-7.66,0-.25.16-.6-.14-.75-.24-.12-.43.17-.61.31-2.56,1.85-5.11,3.71-7.66,5.57-3.25,2.37-4.94,5.51-4.82,9.58.03.91,0,1.82,0,2.74Z"/>
    <path class="cls-5" d="m155.01,67.08c.01,2.21-.23,4.46.95,6.51.6,1.03,1.3,1.96,2.26,2.67,2.15,1.59,4.31,3.15,6.47,4.71.23.16.68.66.66-.1-.08-2.79.35-5.59-.3-8.36-.4-1.7-1.24-3.17-2.59-4.23-2.22-1.75-4.54-3.37-6.81-5.06-.46-.34-.66-.3-.65.32.02,1.18,0,2.35,0,3.53Z"/>
    <path class="cls-1" d="m167.73,68.36c0,.82,0,1.64,0,2.46,0,.51.15.61.57.29,1.61-1.2,3.26-2.33,4.82-3.59,1.29-1.04,1.89-2.52,1.98-4.15.08-1.45.02-2.91.02-4.37,0-.17,0-.42-.11-.5-.21-.17-.38.07-.54.18-1.4,1.01-2.81,2.02-4.19,3.06-1.65,1.24-2.57,2.87-2.53,4.98.01.55,0,1.09,0,1.64,0,0,0,0,0,0Z"/>
  </g>
  <g>
    <rect class="cls-4" x="38" y="103" width="50" height="50"/>
    <path class="cls-5" d="m68.42,147.27h-5.94v-5.94c0-.86-.7-1.56-1.56-1.56s-1.56.7-1.56,1.56v5.94h-5.94c-.86,0-1.56.7-1.56,1.56s.7,1.56,1.56,1.56h15c.86,0,1.56-.7,1.56-1.56s-.7-1.56-1.56-1.56Z"/>
    <path class="cls-3" d="m79.67,128.42v3.54c0,6.56-3.75,9.38-9.37,9.38h-18.75c-5.63,0-9.37-2.81-9.37-9.38v-11.25c0-6.56,3.75-9.37,9.37-9.37h5.63c-.27.79-.42,1.67-.42,2.6v8.12c0,2.02.67,3.73,1.85,4.92,1.19,1.19,2.9,1.85,4.92,1.85v2.9c0,1.06,1.21,1.71,2.1,1.12l6.02-4.02h5.42c.94,0,1.81-.15,2.6-.42Z"/>
    <path class="cls-1" d="m83.83,113.94v8.12c0,3.1-1.58,5.44-4.17,6.35-.79.27-1.67.42-2.6.42h-5.42l-6.02,4.02c-.9.58-2.1-.06-2.1-1.12v-2.9c-2.02,0-3.73-.67-4.92-1.85-1.19-1.19-1.85-2.9-1.85-4.92v-8.12c0-.94.15-1.81.42-2.6.92-2.58,3.25-4.17,6.35-4.17h13.54c4.06,0,6.77,2.71,6.77,6.77Z"/>
    <rect class="cls-4" x="61.51" y="108.77" width="17.57" height="17.57"/>
  </g>
  <g>
    <rect class="cls-4" x="62.41" y="109.98" width="16.59" height="16.59"/>
    <path class="cls-3" d="m71.61,115.58l.91,1.83c.13.25.46.5.73.54l1.65.28c1.06.18,1.3.94.55,1.7l-1.29,1.29c-.22.22-.34.64-.27.94l.37,1.59c.29,1.26-.38,1.75-1.49,1.09l-1.55-.92c-.28-.17-.74-.17-1.02,0l-1.55.92c-1.11.66-1.78.17-1.49-1.09l.37-1.59c.07-.3-.05-.72-.27-.94l-1.29-1.29c-.76-.76-.51-1.53.55-1.7l1.65-.28c.28-.05.61-.29.73-.54l.91-1.83c.49-.99,1.3-.99,1.8,0Z"/>
    <path class="cls-5" d="m66.56,116.72c-.29,0-.52-.23-.52-.52v-4.84c0-.29.23-.52.52-.52s.52.23.52.52v4.84c0,.29-.23.52-.52.52Z"/>
    <path class="cls-5" d="m74.85,116.72c-.29,0-.52-.23-.52-.52v-4.84c0-.29.23-.52.52-.52s.52.23.52.52v4.84c0,.29-.23.52-.52.52Z"/>
    <path class="cls-5" d="m70.71,113.26c-.29,0-.52-.23-.52-.52v-1.38c0-.29.23-.52.52-.52s.52.23.52.52v1.38c0,.29-.23.52-.52.52Z"/>
  </g>
  <g>
    <path class="cls-6" d="m126.7,60.24v7.25c0,1.36-.49,2.38-1.37,2.87-.36.2-.75.29-1.16.29-.63,0-1.31-.21-2.01-.65l-2.31-1.44c-.16-.09-.34-.15-.52-.15h-.73v-9.08h.73c.18,0,.36-.06.52-.15l2.31-1.44c1.15-.72,2.28-.84,3.17-.36.88.49,1.37,1.51,1.37,2.87Z"/>
    <path class="cls-3" d="m118.61,59.32v9.08h-.39c-1.91,0-2.96-1.05-2.96-2.96v-3.16c0-1.91,1.05-2.96,2.96-2.96h.39Z"/>
  </g>
  <g>
    <path class="cls-6" d="m131,114.87v5.75c0,2.56-1.52,4.08-4.08,4.08h-5.88c-2.56,0-4.08-1.52-4.08-4.08v-5.74h14.04Z"/>
    <path class="cls-5" d="m121.87,121.71c-.08,0-.16-.02-.23-.06-.54-.27-1.01-.68-1.34-1.18-.28-.42-.28-.96,0-1.38.34-.5.8-.91,1.34-1.18.26-.13.58-.02.71.24.13.26.02.58-.24.71-.38.19-.7.47-.93.83-.04.07-.04.15,0,.22.23.35.56.64.93.83.26.13.37.45.24.71-.09.18-.28.29-.47.29Z"/>
    <path class="cls-5" d="m126.23,121.71c-.19,0-.38-.11-.47-.29-.13-.26-.02-.58.24-.71.38-.19.7-.47.93-.83.04-.07.04-.15,0-.22-.23-.35-.56-.64-.93-.83-.26-.13-.37-.45-.24-.71.13-.26.45-.37.71-.24.54.27,1.01.68,1.34,1.18.28.42.28.96,0,1.38-.34.5-.8.91-1.34,1.18-.08.04-.16.06-.23.06Z"/>
    <path class="cls-3" d="m131,114.73v.13h-14.04s0-.13,0-.13c0-2.56,1.52-4.08,4.08-4.08h5.88c2.56,0,4.08,1.52,4.08,4.08Z"/>
  </g>
  <path class="cls-5" d="m128.64,60.15c-.14-.25-.04-.57.21-.7l1.22-.66c.25-.14.57-.04.7.21s.04.57-.21.7l-1.22.66c-.25.14-.57.04-.7-.21Z"/>
  <path class="cls-5" d="m128.55,66.93c.09-.27.38-.43.65-.34l1.32.41c.27.09.43.38.34.65s-.38.43-.65.34l-1.32-.41c-.27-.09-.43-.38-.34-.65Z"/>
  <path class="cls-5" d="m130.99,63.49c0,.29-.23.52-.52.52h-1.38c-.29,0-.52-.23-.52-.52s.23-.52.52-.52h1.38c.29,0,.52.23.52.52Z"/>
</svg>