<?xml version="1.0" encoding="UTF-8"?>
<svg id="Capa_1" data-name="Capa 1" xmlns="http://www.w3.org/2000/svg" viewBox="0 0 191 99">
  <defs>
    <style>
      .cls-1 {
        fill: #554dde;
      }

      .cls-1, .cls-2, .cls-3, .cls-4, .cls-5, .cls-6, .cls-7 {
        stroke-width: 0px;
      }

      .cls-2 {
        fill: #252525;
      }

      .cls-3 {
        fill: #121212;
      }

      .cls-5 {
        fill: none;
        opacity: 0;
      }

      .cls-6 {
        fill: #f1f1f1;
      }

      .cls-7 {
        fill: #1e1e1f;
      }
    </style>
  </defs>
  <g>
    <rect class="cls-5" x="38" y="49" width="50" height="50"/>
    <path class="cls-6" d="m68.42,93.27h-5.94v-5.94c0-.86-.7-1.56-1.56-1.56s-1.56.7-1.56,1.56v5.94h-5.94c-.86,0-1.56.7-1.56,1.56s.7,1.56,1.56,1.56h15c.86,0,1.56-.7,1.56-1.56s-.7-1.56-1.56-1.56Z"/>
    <path class="cls-4" d="m79.67,74.42v3.54c0,6.56-3.75,9.38-9.37,9.38h-18.75c-5.63,0-9.37-2.81-9.37-9.38v-11.25c0-6.56,3.75-9.37,9.37-9.37h5.63c-.27.79-.42,1.67-.42,2.6v8.12c0,2.02.67,3.73,1.85,4.92,1.19,1.19,2.9,1.85,4.92,1.85v2.9c0,1.06,1.21,1.71,2.1,1.12l6.02-4.02h5.42c.94,0,1.81-.15,2.6-.42Z"/>
    <path class="cls-1" d="m83.83,59.94v8.12c0,3.1-1.58,5.44-4.17,6.35-.79.27-1.67.42-2.6.42h-5.42l-6.02,4.02c-.9.58-2.1-.06-2.1-1.12v-2.9c-2.02,0-3.73-.67-4.92-1.85-1.19-1.19-1.85-2.9-1.85-4.92v-8.12c0-.94.15-1.81.42-2.6.92-2.58,3.25-4.17,6.35-4.17h13.54c4.06,0,6.77,2.71,6.77,6.77Z"/>
    <g>
      <rect class="cls-5" x="61.51" y="54.77" width="17.57" height="17.57"/>
      <path class="cls-4" d="m64.25,63.5c-.3,0-.55-.25-.55-.55,0-3.13,2.34-5.76,5.44-6.12.3-.03.57.18.61.48.04.3-.18.57-.48.61-2.55.3-4.47,2.46-4.47,5.03,0,.3-.25.55-.55.55Z"/>
      <path class="cls-4" d="m76.33,63.5c-.3,0-.55-.25-.55-.55,0-2.55-1.91-4.72-4.45-5.02-.3-.04-.52-.31-.48-.61.04-.3.31-.51.61-.48,3.09.38,5.41,3.01,5.41,6.11,0,.3-.25.55-.55.55Z"/>
      <g>
        <path class="cls-4" d="m71.24,70.89h-1.88c-.67,0-1.17-.55-1.05-1.13l.31-1.35h3.36l.31,1.35c.14.62-.33,1.13-1.05,1.13Z"/>
        <path class="cls-7" d="m73.27,67.26l-1.29,1.15h-3.36l-1.29-1.15c-.75-.62-.75-1.09-.18-1.82l2.28-2.89c.16-.2.34-.33.54-.4.22-.07.44-.07.66,0,.2.07.38.21.54.4l2.28,2.89c.57.73.55,1.17-.18,1.82Z"/>
      </g>
      <g>
        <rect class="cls-7" x="68.84" y="55.87" width="2.93" height="2.93" rx="1.1" ry="1.1"/>
        <rect class="cls-7" x="62.8" y="62.58" width="2.93" height="2.93" rx="1.1" ry="1.1"/>
        <rect class="cls-7" x="74.86" y="62.58" width="2.93" height="2.93" rx="1.1" ry="1.1"/>
      </g>
    </g>
  </g>
  <rect class="cls-2" y="42" width="34" height="37"/>
  <rect class="cls-2" width="34" height="37"/>
  <g>
    <path class="cls-4" d="m136.56,63.37v13.86h-42.56v-13.86c0-5.19,4.22-9.4,9.4-9.4h23.75c5.19,0,9.4,4.22,9.4,9.4Z"/>
    <path class="cls-6" d="m94,77.23v.44c0,5.19,4.21,9.4,9.4,9.4h8.06c1.24,0,2.24,1,2.24,2.24v1.84c0,1.24-1,2.24-2.24,2.24h-5.05c-.88,0-1.6.72-1.6,1.6s.72,1.6,1.6,1.6h17.79c.88,0,1.6-.72,1.6-1.6s-.72-1.6-1.6-1.6h-5.05c-1.24,0-2.24-1-2.24-2.24v-1.84c0-1.24,1-2.24,2.24-2.24h8.01c5.19,0,9.4-4.21,9.4-9.4v-.44h-42.56Z"/>
    <g>
      <path class="cls-1" d="m140,55.52v12.22c0,2.29-.83,4.01-2.3,4.83-.6.33-1.26.49-1.96.49-1.06,0-2.21-.36-3.38-1.09l-3.89-2.44c-.27-.16-.57-.25-.88-.25h-1.24v-15.31h1.24c.31,0,.61-.09.88-.25l3.89-2.44c1.94-1.21,3.85-1.42,5.34-.6,1.48.83,2.3,2.54,2.3,4.83Z"/>
      <path class="cls-7" d="m126.36,53.97v15.31h-.67c-3.22,0-4.99-1.77-4.99-4.99v-5.32c0-3.22,1.77-4.99,4.99-4.99h.67Z"/>
    </g>
  </g>
  <g>
    <path class="cls-7" d="m29.96,54.89v8.22H4.72v-8.22c0-3.08,2.5-5.58,5.58-5.58h14.09c3.08,0,5.58,2.5,5.58,5.58Z"/>
    <path class="cls-6" d="m4.72,63.11v.26c0,3.08,2.5,5.58,5.58,5.58h4.78c.73,0,1.33.6,1.33,1.33v1.09c0,.73-.6,1.33-1.33,1.33h-3c-.52,0-.95.42-.95.95s.42.95.95.95h10.55c.52,0,.95-.42.95-.95s-.42-.95-.95-.95h-3c-.73,0-1.33-.6-1.33-1.33v-1.09c0-.73.6-1.33,1.33-1.33h4.75c3.08,0,5.58-2.5,5.58-5.58v-.26H4.72Z"/>
    <g>
      <path class="cls-1" d="m32,50.23v7.25c0,1.36-.49,2.38-1.37,2.87-.36.2-.75.29-1.16.29-.63,0-1.31-.21-2.01-.65l-2.31-1.44c-.16-.09-.34-.15-.52-.15h-.73v-9.08h.73c.18,0,.36-.06.52-.15l2.31-1.44c1.15-.72,2.28-.84,3.17-.36.88.49,1.37,1.51,1.37,2.87Z"/>
      <path class="cls-4" d="m23.91,49.32v9.08h-.39c-1.91,0-2.96-1.05-2.96-2.96v-3.16c0-1.91,1.05-2.96,2.96-2.96h.39Z"/>
    </g>
  </g>
  <g>
    <path class="cls-4" d="m29.96,13.89v8.22H4.72v-8.22c0-3.08,2.5-5.58,5.58-5.58h14.09c3.08,0,5.58,2.5,5.58,5.58Z"/>
    <path class="cls-6" d="m4.72,22.11v.26c0,3.08,2.5,5.58,5.58,5.58h4.78c.73,0,1.33.6,1.33,1.33v1.09c0,.73-.6,1.33-1.33,1.33h-3c-.52,0-.95.42-.95.95s.42.95.95.95h10.55c.52,0,.95-.42.95-.95s-.42-.95-.95-.95h-3c-.73,0-1.33-.6-1.33-1.33v-1.09c0-.73.6-1.33,1.33-1.33h4.75c3.08,0,5.58-2.5,5.58-5.58v-.26H4.72Z"/>
    <g>
      <path class="cls-1" d="m32,9.23v7.25c0,1.36-.49,2.38-1.37,2.87-.36.2-.75.29-1.16.29-.63,0-1.31-.21-2.01-.65l-2.31-1.44c-.16-.09-.34-.15-.52-.15h-.73v-9.08h.73c.18,0,.36-.06.52-.15l2.31-1.44c1.15-.72,2.28-.84,3.17-.36.88.49,1.37,1.51,1.37,2.87Z"/>
      <path class="cls-7" d="m23.91,8.32v9.08h-.39c-1.91,0-2.96-1.05-2.96-2.96v-3.16c0-1.91,1.05-2.96,2.96-2.96h.39Z"/>
    </g>
  </g>
  <g>
    <rect class="cls-5" x="145" y="50.96" width="46" height="46"/>
    <path class="cls-1" d="m177.58,90.25h-19.17c-5.75,0-9.58-2.87-9.58-9.58v-13.42c0-6.71,3.83-9.58,9.58-9.58h19.17c5.75,0,9.58,2.87,9.58,9.58v13.42c0,6.71-3.83,9.58-9.58,9.58Z"/>
    <path class="cls-3" d="m168,75.64c-1.62,0-3.23-.5-4.49-1.51l-5.99-4.79c-.62-.5-.72-1.4-.22-2.02.5-.62,1.4-.72,2.02-.22l5.99,4.79c1.46,1.17,3.93,1.17,5.39,0l5.99-4.79c.62-.5,1.53-.4,2.02.22.5.62.4,1.52-.22,2.02l-5.99,4.79c-1.26,1.01-2.87,1.51-4.49,1.51Z"/>
  </g>
</svg>